<svg xmlns="http://www.w3.org/2000/svg" width="118" height="118" viewBox="0 0 118 118" fill="none"><g clip-path="url(#clip0_606_39)"><path d="M59 118C91.5848 118 118 91.5848 118 59C118 26.4152 91.5848 0 59 0C26.4152 0 0 26.4152 0 59C0 91.5848 26.4152 118 59 118Z" fill="#1754D5"></path><path d="M89.2847 81.9746H88.2404V44.3795C88.2404 43.2717 87.8003 42.2092 87.0169 41.4258C86.2335 40.6424 85.171 40.2023 84.0632 40.2023H78.8416V26.6263C78.8416 26.3494 78.7316 26.0837 78.5358 25.8879C78.3399 25.6921 78.0743 25.582 77.7973 25.582H40.2023C39.9253 25.582 39.6597 25.6921 39.4639 25.8879C39.268 26.0837 39.158 26.3494 39.158 26.6263V40.2023H33.9365C32.8286 40.2023 31.7661 40.6424 30.9827 41.4258C30.1994 42.2092 29.7593 43.2717 29.7593 44.3795V81.9746H28.7149C27.884 81.9746 27.0872 82.3046 26.4996 82.8922C25.9121 83.4797 25.582 84.2766 25.582 85.1075V87.1961C25.582 88.5809 26.1322 89.909 27.1114 90.8883C28.0906 91.8675 29.4187 92.4176 30.8036 92.4176H87.1961C88.5809 92.4176 89.909 91.8675 90.8883 90.8883C91.8675 89.909 92.4176 88.5809 92.4176 87.1961V85.1075C92.4176 84.2766 92.0875 83.4797 91.5 82.8922C90.9125 82.3046 90.1156 81.9746 89.2847 81.9746ZM36.0251 77.7973V46.4681H39.158V77.7973H36.0251ZM41.2466 33.9365H76.753V77.7973H41.2466V33.9365ZM78.8416 46.4681H81.9746V77.7973H78.8416V46.4681ZM41.2466 27.6706H76.753V31.8479H41.2466V27.6706ZM31.8479 44.3795C31.8479 43.8256 32.0679 43.2944 32.4596 42.9027C32.8513 42.511 33.3825 42.2909 33.9365 42.2909H39.158V44.3795H34.9808C34.7038 44.3795 34.4382 44.4896 34.2423 44.6854C34.0465 44.8813 33.9365 45.1469 33.9365 45.4238V78.8416C33.9365 79.1186 34.0465 79.3842 34.2423 79.5801C34.4382 79.7759 34.7038 79.8859 34.9808 79.8859H83.0189C83.2958 79.8859 83.5614 79.7759 83.7573 79.5801C83.9531 79.3842 84.0632 79.1186 84.0632 78.8416V45.4238C84.0632 45.1469 83.9531 44.8813 83.7573 44.6854C83.5614 44.4896 83.2958 44.3795 83.0189 44.3795H78.8416V42.2909H84.0632C84.6171 42.2909 85.1483 42.511 85.54 42.9027C85.9317 43.2944 86.1518 43.8256 86.1518 44.3795V81.9746H31.8479V44.3795ZM67.49 84.0632L66.7903 85.1075H51.2093L50.5096 84.0632H67.49ZM90.329 87.1961C90.329 88.027 89.9989 88.8239 89.4114 89.4114C88.8239 89.9989 88.027 90.329 87.1961 90.329H30.8036C29.9727 90.329 29.1758 89.9989 28.5883 89.4114C28.0007 88.8239 27.6706 88.027 27.6706 87.1961V85.1075C27.6706 84.8305 27.7807 84.5649 27.9765 84.369C28.1724 84.1732 28.438 84.0632 28.7149 84.0632H47.9928L49.7786 86.7261C50.2172 87.3945 49.3504 87.1961 67.3543 87.1961C68.0748 87.1961 68.1271 86.8828 70.0068 84.0632H89.2847C89.5617 84.0632 89.8273 84.1732 90.0231 84.369C90.219 84.5649 90.329 84.8305 90.329 85.1075V87.1961Z" fill="white"></path><path d="M44.3802 28.7148C44.1033 28.7148 43.8377 28.8249 43.6418 29.0207C43.446 29.2166 43.3359 29.4822 43.3359 29.7591C43.3359 30.0361 43.446 30.3017 43.6418 30.4976C43.8377 30.6934 44.1033 30.8035 44.3802 30.8035C44.6572 30.8035 44.9228 30.6934 45.1187 30.4976C45.3145 30.3017 45.4245 30.0361 45.4245 29.7591C45.4245 29.4822 45.3145 29.2166 45.1187 29.0207C44.9228 28.8249 44.6572 28.7148 44.3802 28.7148V28.7148Z" fill="white"></path><path d="M48.556 28.7148C48.2791 28.7148 48.0134 28.8249 47.8176 29.0207C47.6217 29.2166 47.5117 29.4822 47.5117 29.7591C47.5117 30.0361 47.6217 30.3017 47.8176 30.4976C48.0134 30.6934 48.2791 30.8035 48.556 30.8035C48.833 30.8035 49.0986 30.6934 49.2945 30.4976C49.4903 30.3017 49.6003 30.0361 49.6003 29.7591C49.6003 29.4822 49.4903 29.2166 49.2945 29.0207C49.0986 28.8249 48.833 28.7148 48.556 28.7148V28.7148Z" fill="white"></path><path d="M52.7338 28.7148C52.4568 28.7148 52.1912 28.8249 51.9953 29.0207C51.7995 29.2166 51.6895 29.4822 51.6895 29.7591C51.6895 30.0361 51.7995 30.3017 51.9953 30.4976C52.1912 30.6934 52.4568 30.8035 52.7338 30.8035C53.0107 30.8035 53.2764 30.6934 53.4722 30.4976C53.668 30.3017 53.7781 30.0361 53.7781 29.7591C53.7781 29.4822 53.668 29.2166 53.4722 29.0207C53.2764 28.8249 53.0107 28.7148 52.7338 28.7148V28.7148Z" fill="white"></path><path d="M51.47 56.1696C52.5891 57.1585 53.8962 57.9115 55.3131 58.3835C56.8323 58.8947 58.4412 59.0845 60.0376 58.9407C61.6341 58.7968 63.1832 58.3226 64.5865 57.548C74.9356 51.7939 70.7584 36.0249 58.9995 36.0249C56.6626 36.0292 54.3825 36.7461 52.4637 38.08C50.5448 39.4139 49.0785 41.3014 48.2603 43.4904C47.4421 45.6794 47.311 48.0659 47.8845 50.3314C48.458 52.5969 49.7088 54.6335 51.47 56.1696V56.1696ZM56.2425 45.6116V44.6613C56.2425 43.9301 56.533 43.2289 57.05 42.7118C57.5671 42.1948 58.2683 41.9043 58.9995 41.9043C59.7307 41.9043 60.4319 42.1948 60.949 42.7118C61.466 43.2289 61.7565 43.9301 61.7565 44.6613V45.6116C61.7565 46.3428 61.466 47.0441 60.949 47.5611C60.4319 48.0781 59.7307 48.3686 58.9995 48.3686C58.2683 48.3686 57.5671 48.0781 57.05 47.5611C56.533 47.0441 56.2425 46.3428 56.2425 45.6116V45.6116ZM64.3046 55.261C62.7418 56.3296 60.8927 56.9014 58.9995 56.9014C57.1063 56.9014 55.2572 56.3296 53.6944 55.261C53.3811 55.0417 53.4229 55.2088 53.6944 54.2167C54.066 53.1182 54.7726 52.1639 55.7149 51.4879C56.6572 50.8119 57.7876 50.4484 58.9473 50.4484C60.1069 50.4484 61.2374 50.8119 62.1797 51.4879C63.1219 52.1639 63.8285 53.1182 64.2001 54.2167C64.5761 55.2088 64.6179 55.0417 64.3046 55.261ZM58.9995 38.1135C60.7852 38.1146 62.5337 38.6243 64.0402 39.5831C65.5467 40.5419 66.7489 41.91 67.506 43.5273C68.2631 45.1445 68.5439 46.944 68.3154 48.715C68.0868 50.4861 67.3585 52.1554 66.2156 53.5275C65.8876 52.5728 65.3736 51.6927 64.7031 50.938C64.0327 50.1834 63.2193 49.5691 62.3099 49.1309C62.8945 48.5557 63.3375 47.8526 63.6039 47.0769C63.8703 46.3013 63.9528 45.4743 63.8451 44.6613C63.8451 43.3762 63.3346 42.1437 62.4258 41.235C61.5171 40.3262 60.2846 39.8157 58.9995 39.8157C57.7144 39.8157 56.4819 40.3262 55.5731 41.235C54.6644 42.1437 54.1539 43.3762 54.1539 44.6613C54.1539 46.186 54.1539 47.6585 55.689 49.1309C54.7797 49.5691 53.9663 50.1834 53.2958 50.938C52.6254 51.6927 52.1113 52.5728 51.7833 53.5275C50.6405 52.1554 49.9121 50.4861 49.6836 48.715C49.4551 46.944 49.7358 45.1445 50.493 43.5273C51.2501 41.91 52.4523 40.5419 53.9588 39.5831C55.4653 38.6243 57.2138 38.1146 58.9995 38.1135V38.1135Z" fill="white"></path><path d="M70.4878 61.0884H47.5131C47.2361 61.0884 46.9705 61.1984 46.7746 61.3942C46.5788 61.5901 46.4688 61.8557 46.4688 62.1327V66.3099C46.4688 66.5869 46.5788 66.8525 46.7746 67.0483C46.9705 67.2442 47.2361 67.3542 47.5131 67.3542H70.4878C70.7648 67.3542 71.0304 67.2442 71.2262 67.0483C71.4221 66.8525 71.5321 66.5869 71.5321 66.3099V62.1327C71.5321 61.8557 71.4221 61.5901 71.2262 61.3942C71.0304 61.1984 70.7648 61.0884 70.4878 61.0884ZM69.4435 65.2656H48.5574V63.177H69.4435V65.2656Z" fill="white"></path><path d="M70.4878 69.4429H47.5131C47.2361 69.4429 46.9705 69.5529 46.7746 69.7487C46.5788 69.9446 46.4688 70.2102 46.4688 70.4872V74.6644C46.4688 74.9414 46.5788 75.207 46.7746 75.4028C46.9705 75.5987 47.2361 75.7087 47.5131 75.7087H70.4878C70.7648 75.7087 71.0304 75.5987 71.2262 75.4028C71.4221 75.207 71.5321 74.9414 71.5321 74.6644V70.4872C71.5321 70.2102 71.4221 69.9446 71.2262 69.7487C71.0304 69.5529 70.7648 69.4429 70.4878 69.4429ZM69.4435 73.6201H48.5574V71.5315H69.4435V73.6201Z" fill="white"></path></g><defs><clipPath id="clip0_606_39"><rect width="118" height="118" fill="white"></rect></clipPath></defs></svg>